<?xml version="1.0" standalone="no"?>
<!DOCTYPE svg PUBLIC "-//W3C//DTD SVG 1.1//EN" "http://www.w3.org/Graphics/SVG/1.1/DTD/svg11.dtd" >
<!--
2013-9-30: Created.
-->
<svg>
<metadata>
Created by iconfont
</metadata>
<defs>

<font id="iconfont" horiz-adv-x="1024" >
  <font-face
    font-family="iconfont"
    font-weight="500"
    font-stretch="normal"
    units-per-em="1024"
    ascent="896"
    descent="-128"
  />
    <missing-glyph />
    
    <glyph glyph-name="iconfontmima" unicode="&#58912;" d="M724.884017 582.056821c-15.445784-3.990894-31.31624 4.866844-35.462676 19.814278l-12.270465 47.209208c-25.959232 93.755314-114.480334 149.46922-214.95263 123.437333-101.489462-26.329668-145.786341-118.202099-120.28555-210.383568l19.554358-84.8372c4.109598-14.911618-5.046946-30.250978-20.453844-34.277688-15.445784-3.990894-31.306007 4.856611-35.450397 19.815301l-19.517519 84.790128C252.252653 669.641599 314.94346 792.296103 447.239556 826.585047c131.775232 34.156938 251.420193-38.95522 285.768489-163.043377l12.317537-47.197952C749.447459 601.385029 740.32673 586.047716 724.884017 582.056821L724.884017 582.056821zM769.841951-62.67724899999996L249.280972-62.67724899999996c-63.779605 0-115.691929 50.218752-115.691929 111.947651L133.589043 385.187035c0 61.742203 51.9113 111.960954 115.691929 111.960954l520.56098 0c63.816444 0 115.691929-50.218752 115.691929-111.960954l0-335.916633C885.532857-12.458496999999966 833.658396-62.67724899999996 769.841951-62.67724899999996L769.841951-62.67724899999996zM827.711963 385.187035c0 30.864962-25.962302 55.986105-57.871035 55.986105L249.280972 441.173141c-31.872918 0-57.821917-25.121144-57.821917-55.986105l0-335.916633c0-30.840402 25.948999-55.972802 57.821917-55.972802l520.56098 0c31.908734 0 57.871035 25.133424 57.871035 55.972802L827.712987 385.187035 827.711963 385.187035zM509.584486 217.26453500000002c-31.940456 0-57.856709 25.038256-57.856709 55.974849 0 30.912034 25.915229 55.972802 57.856709 55.972802 31.956829 0 57.82294-25.060769 57.82294-55.972802C567.406402 242.30279099999996 541.540292 217.26453500000002 509.584486 217.26453500000002L509.584486 217.26453500000002zM509.584486 105.269811c-15.965623 0-28.933983 12.529361-28.933983 28.022217L480.650503 245.23967900000002c0 15.443737 12.968359 27.999704 28.933983 27.999704 15.965623 0 28.924773-12.55699 28.924773-27.999704l0-111.947651C538.508235 117.799172 525.549086 105.269811 509.584486 105.269811L509.584486 105.269811z"  horiz-adv-x="1024" />

    
    <glyph glyph-name="shanchu1" unicode="&#59020;" d="M555.4 384l304.6 304.6c4.8 4.8 4.8 12.6 0 17.4l-26 26c-4.8 4.8-12.6 4.8-17.4 0L512 427.4 207.4 732c-4.8 4.8-12.6 4.8-17.4 0l-26-26c-4.8-4.8-4.8-12.6 0-17.4L468.6 384 164 79.4c-4.8-4.8-4.8-12.6 0-17.4l26-26c4.8-4.8 12.6-4.8 17.4 0L512 340.6l304.6-304.6c4.8-4.8 12.6-4.8 17.4 0l26 26c4.8 4.8 4.8 12.6 0 17.4L555.4 384z"  horiz-adv-x="1024" />

    
    <glyph glyph-name="shuaxin" unicode="&#59042;" d="M801.702 319.088c-7.244-151.545-133.354-272.206-287.869-272.206-159.174 0-288.214 128.042-288.214 285.983 0 153.307 121.559 278.418 274.246 285.649v-136.004l301.938 163.42-301.939 190.653v-136.228c-198.15-7.328-356.512-169.039-356.512-367.433 0-203.081 165.9-367.697 370.557-367.697 199.994 0 362.973 157.195 370.303 353.863l-82.508-0.001zM801.702 319.088z"  horiz-adv-x="1024" />

    
    <glyph glyph-name="yonghuzhongxin" unicode="&#58915;" d="M512.000512 768.802016c-212.529441 0-384.804063-172.282808-384.804063-384.80304 0-212.522278 172.274622-384.80304 384.804063-384.80304 212.513068 0 384.800993 172.280762 384.800993 384.80304C896.801505 596.520231 724.51358 768.802016 512.000512 768.802016zM512.000512 45.372629c-187.021487 0-338.627371 151.606907-338.627371 338.627371 0 187.019441 151.60486 338.626347 338.627371 338.626347 187.019441 0 338.625324-151.606907 338.625324-338.626347C850.625836 196.979536 699.019952 45.372629 512.000512 45.372629zM580.782038 310.043614c41.638329 23.886013 69.746504 68.687382 69.746504 120.132054 0 76.510558-62.019519 138.529053-138.52803 138.529053-76.510558 0-138.530077-62.018495-138.530077-138.529053 0-51.444673 28.109198-96.246041 69.746504-120.132054-68.648496-25.177426-119.619378-86.74669-129.450281-161.390737 9.259898-7.816013 18.998703-15.075347 29.14683-21.765723 2.433422 91.390453 77.110215 164.758438 169.088046 164.758438 91.959412 0 166.638251-73.367985 169.071673-164.758438 10.163477 6.689353 19.885909 13.94971 29.161157 21.765723C700.388113 223.297948 649.415185 284.867212 580.782038 310.043614zM404.254555 430.175669c0 59.509349 48.236608 107.744933 107.745956 107.744933 59.493999 0 107.742886-48.234561 107.742886-107.744933 0-59.510372-48.248887-107.744933-107.742886-107.744933C452.491163 322.431759 404.254555 370.66632 404.254555 430.175669z"  horiz-adv-x="1024" />

    
    <glyph glyph-name="xingxingxianmiao" unicode="&#58918;" d="M740.550323 0.770805c-2.236947 0-4.483104 0.505513-6.562463 1.530866l-223.00912 110.0003L287.958364 2.301671c-4.881171-2.408863-10.688433-1.951445-15.131629 1.192152-4.443196 3.14155-6.810103 8.464789-6.167466 13.867846l30.685883 257.948887L128.436184 464.903611c-3.5345 3.968381-4.678556 9.522887-2.996241 14.564717 1.681292 5.04183 5.929036 8.798387 11.137665 9.851369l242.10299 48.90892 119.157867 227.194442c2.562359 4.886287 7.623631 7.946996 13.140275 7.946996 5.516644 0 10.577916-3.060709 13.141298-7.946996l119.151727-227.194442 242.10299-48.90892c5.207605-1.052982 9.456373-4.809539 11.137665-9.850345 1.681292-5.04183 0.538259-10.596336-2.996241-14.564717L724.613352 275.309532l30.674627-257.947863c0.642636-5.40408-1.725294-10.726296-6.16849-13.867846C746.568387 1.689734 743.568053 0.770805 740.550323 0.770805zM167.787424 465.347726l156.160619-175.284165c2.826372-3.172249 4.157693-7.404644 3.65525-11.623735l-28.244274-237.424434 205.055213 101.141538c4.139274 2.041496 8.990768 2.041496 13.129019-0.001023l205.043956-101.140515-28.233018 237.424434c-0.50142 4.219091 0.829901 8.451486 3.65525 11.622712l156.155503 175.285189-223.691665 45.189202c-4.378727 0.88516-8.127098 3.696182-10.202363 7.653307L510.979764 726.582449 401.681452 518.189212c-2.075265-3.956102-5.822612-6.768147-10.202363-7.652284L167.787424 465.347726z"  horiz-adv-x="1024" />

    
    <glyph glyph-name="iposition" unicode="&#58913;" d="M629.983143 503.311206c-16.909393 16.884222-37.181736 30.429659-59.29766 39.572048-22.115924 9.148431-46.011996 13.889787-69.938274 13.889787s-47.855577-4.741356-69.938274-13.889787c-22.115924-9.14239-42.389274-22.657621-59.302695-39.572048-16.90738-16.879187-30.452817-37.152537-39.624406-59.211069-9.147424-22.087732-13.923014-45.954604-13.923014-69.85269 0-23.896072 4.747397-47.768986 13.923014-69.850676 9.143397-22.087732 22.687827-42.330875 39.624406-59.217111 16.913421-16.879187 37.186771-30.423617 59.302695-39.567014 22.082697-9.147424 46.013003-13.88878 69.938274-13.88878s47.82235 4.741356 69.938274 13.88878c22.086725 9.143397 42.389274 22.659634 59.29766 39.567014 16.90738 16.885228 30.457851 37.129379 39.600241 59.217111 9.14239 22.058532 13.917979 45.954604 13.917979 69.850676 0 23.898086-4.77559 47.764959-13.917979 69.85269C660.469186 466.158669 646.920729 486.403826 629.983143 503.311206L629.983143 503.311206zM904.481379 420.00269C888.113682 616.133127 744.298254 762.422437 547.877838 776.023252L547.877838 879.553767l-83.942844 0L463.934994 774.676059C273.011087 756.989361 121.601838 612.049258 105.239175 420.00269L1.594884 420.00269l0-85.64345 103.644291 0c16.362662-192.041533 165.962565-337.384385 356.885464-356.453517l0-104.877708 85.723999 0L547.848639-23.44147c196.39021 13.630014 340.235844 161.704507 356.601527 357.830916l103.669463 0 0 85.613244L904.481379 420.00269 904.481379 420.00269zM504.860277 46.927745c-181.378768 0-329.13509 148.875962-329.13509 328.673943 0 179.793953 149.110563 330.48329 329.13509 330.48329 181.40092 0 329.130055-150.689337 329.130055-330.48329C833.991339 195.8319 686.233004 46.927745 504.860277 46.927745L504.860277 46.927745zM504.860277 46.927745"  horiz-adv-x="1024" />

    
    <glyph glyph-name="jinggao1" unicode="&#58926;" d="M514.567 817.797c236.15 0 431.23-195.081 431.23-436.364 0-236.15-195.081-431.23-431.23-431.23-241.283 0-436.364 195.081-436.364 431.23 0 241.283 195.081 436.364 436.364 436.364zM514.567 864c-266.952 0-482.567-215.615-482.567-482.567 0-261.818 215.615-477.433 482.567-477.433 261.818 0 477.433 215.615 477.433 477.433 0 266.952-215.615 482.567-477.433 482.567v0zM514.567 289.027c-20.535 0-35.936 15.401-35.936 30.802v313.155c0 15.401 15.401 30.802 35.936 30.802 15.401 0 30.802-15.401 30.802-30.802v-313.155c0-15.401-15.401-30.802-30.802-30.802zM514.567 114.481c-20.535 0-35.936 15.401-35.936 30.802v56.47c0 20.535 15.401 30.802 35.936 30.802 15.401 0 30.802-10.267 30.802-30.802v-56.47c0-15.401-15.401-30.802-30.802-30.802z"  horiz-adv-x="1024" />

    
    <glyph glyph-name="xuanze1" unicode="&#58938;" d="M828.183196 700.823785C653.097552 875.924779 369.287671 875.924779 194.177468 700.842205c-175.110203-175.073364-175.110203-458.944644 0-634.002658 175.110203-175.094854 458.920084-175.094854 634.005728 0C1003.24735 241.897561 1003.24735 525.750421 828.183196 700.823785L828.183196 700.823785zM799.374056 95.630267c-159.187559-159.172209-417.21831-159.172209-576.363913 0-159.187559 159.194722-159.187559 417.23059 0 576.413032 159.14458 159.1323 417.175331 159.1323 576.363913-0.046049C958.51659 512.860856 958.51659 254.823965 799.374056 95.630267L799.374056 95.630267zM726.843136 533.669788l26.409486-26.430976L449.276447 203.253426l-26.412556 26.421766L726.843136 533.669788 726.843136 533.669788zM476.452389 229.675192l-26.409486-26.421766L251.558339 401.762549l26.384927 26.430976L476.452389 229.675192 476.452389 229.675192zM476.452389 229.675192"  horiz-adv-x="1024" />

    
    <glyph glyph-name="password" unicode="&#58914;" d="M775.830091 507.556654h-70.590665c0 113.381009-86.656855 200.039821-197.104821 200.039822-110.602543 0-197.106778-86.658812-197.106778-200.039822h-70.743285c0 136.090083 120.023893 270.632443 267.697443 270.632443S775.837918 643.644781 775.837918 507.556654h-0.007827z m89.595769-129.296536c0 38.925928-31.668651 70.588708-70.592622 70.588708H229.162849c-38.929841 0-70.592622-31.662781-70.592622-70.588708v-321.91472c0-38.927884 31.666694-70.590665 70.592622-70.590665h565.513856c38.927884 0 70.590665 31.666694 70.590665 70.590665V378.260118h0.15849z m-297.511174-232.810075c0-29.193467-23.638491-52.980665-52.980664-52.980665h-7.568387c-29.197381 0-52.982621 23.636534-52.982621 52.980665v143.656513c0 29.195424 23.636534 52.982621 52.982621 52.982621h7.568387c29.193467 0 52.980665-23.636534 52.980664-52.982621v-143.656513z"  horiz-adv-x="1024" />

    
    <glyph glyph-name="yonghu" unicode="&#58884;" d="M602.080-64.576h-178.592c-169.408 0-303.2 0-303.2 87.872v17.568c0 164.672 136.032 298.624 303.2 298.624h178.592c167.168 0 303.2-133.952 303.2-298.624v-17.568c-0.032-87.872-140.544-87.872-303.2-87.872zM423.456 286.816c-138.112 0-250.496-110.304-250.496-245.92v-17.568c0-35.168 144.768-35.168 250.496-35.168h178.592c87.52 0 250.496 0 250.496 35.168v17.568c0 135.616-112.384 245.92-250.496 245.92h-178.592zM503.84 357.12c-132.736 0-240.672 106.4-240.672 237.184s107.936 237.152 240.672 237.152 240.672-106.368 240.672-237.152-107.968-237.184-240.672-237.184zM315.872 594.304c0-101.696 84.32-184.48 187.968-184.48s187.968 82.752 187.968 184.48-84.32 184.448-187.968 184.448-187.968-82.752-187.968-184.448z"  horiz-adv-x="1024" />

    
    <glyph glyph-name="quanbu" unicode="&#58991;" d="M244.363636 896a244.363636 244.363636 0 0 1 0-488.727273H488.727273V651.636364A244.596364 244.596364 0 0 1 244.363636 896zM442.181818 453.818182h-197.818182a197.818182 197.818182 0 1 0 197.818182 197.818182z m581.818182 197.818182a244.363636 244.363636 0 0 1-488.727273 0V407.272727h244.363637A244.596364 244.596364 0 0 1 1024 651.636364z m-442.181818 0a197.818182 197.818182 0 1 0 197.818182-197.818182H581.818182z m-581.818182-535.272728a244.363636 244.363636 0 1 1 488.727273 0V360.727273H244.363636A244.596364 244.596364 0 0 1 0 116.363636z m442.181818 0a198.050909 198.050909 0 0 0-197.818182-197.818181 197.818182 197.818182 0 0 0 0 395.636363H442.181818zM779.636364 360.727273H535.272727v-244.363637A244.363636 244.363636 0 1 1 779.636364 360.727273z m0-442.181818a198.050909 198.050909 0 0 0-197.818182 197.818181V314.181818h197.818182a197.818182 197.818182 0 0 0 0-395.636363z"  horiz-adv-x="1024" />

    
    <glyph glyph-name="canshu" unicode="&#58916;" d="M243.2 576c-70.4 0-128 57.6-128 128s57.6 128 128 128 128-57.6 128-128-57.6-128-128-128z m0 192c-38.4 0-64-25.6-64-64s25.6-64 64-64 64 25.6 64 64-25.6 64-64 64zM243.2-64c-19.2 0-32 12.8-32 32V608c0 19.2 12.8 32 32 32s32-12.8 32-32v-640c0-19.2-12.8-32-32-32z m537.6 0c-70.4 0-128 57.6-128 128s57.6 128 128 128 128-57.6 128-128-57.6-128-128-128z m0 192c-38.4 0-64-25.6-64-64s25.6-64 64-64 64 25.6 64 64-25.6 64-64 64zM780.8 128c-19.2 0-32 12.8-32 32V800c0 19.2 12.8 32 32 32s32-12.8 32-32v-640c0-19.2-12.8-32-32-32z m-256-192c-19.2 0-32 12.8-32 32V320c0 19.2 12.8 32 32 32s32-12.8 32-32v-352c0-19.2-12.8-32-32-32z m0 576c-19.2 0-32 12.8-32 32V800c0 19.2 12.8 32 32 32s32-12.8 32-32v-256c0-19.2-12.8-32-32-32zM524.8 288c-70.4 0-128 57.6-128 128s57.6 128 128 128 128-57.6 128-128-57.6-128-128-128z m0 192c-38.4 0-64-25.6-64-64s25.6-64 64-64 64 25.6 64 64-25.6 64-64 64z"  horiz-adv-x="1024" />

    
    <glyph glyph-name="quanxian" unicode="&#58931;" d="M511.779622 896L110.521826 769.771814A35.821512 35.821512 0 0 1 85.333049 735.48551l2.046943-496.270092 0.454877-5.685954c0.739174-3.411573 17.228442-86.426505 99.276762-166.371023 63.114093-61.635745 217.885769-142.205717 283.899698-176.548881 10.348437-5.458516 18.195054-9.438684 22.573239-11.883645l7.50546-4.093887c5.117359-2.729258 11.315049-2.842977 16.489267-0.227438l10.973892 5.572235c38.664489 18.763649 234.943632 115.879749 307.894426 187.067897 82.16204 80.058237 98.594448 163.01631 99.276762 166.484742L938.226195 735.48551a35.821512 35.821512 0 0 1-25.188778 34.343164L511.779622 896z m334.845849-643.650027c-2.842977-11.428768-19.332245-67.605997-75.168316-122.077439-54.016566-52.708796-200.31617-128.10455-253.536703-154.544238a16.489267 16.489267 0 0 0-15.124638 0.113719H502.682095c-54.244004 28.202333-198.098648 103.086352-250.636866 154.373659-56.00665 54.585161-72.382198 110.70553-75.282035 122.077439l-1.705786 430.313022c0 6.425128 4.150747 12.167942 10.348437 14.101167l316.139059 99.5042a33.717709 33.717709 0 0 0 20.298857 0l316.139059-99.5042a14.783481 14.783481 0 0 0 10.462156-14.101167l-1.819505-430.369881-0.05686 0.056859zM517.863593 656.621324a148.630846 148.630846 0 0 0 104.621559-42.417219c27.633738-27.008283 43.213253-63.910126 43.099534-102.347178a142.376296 142.376296 0 0 0-43.724989-102.176599 147.834812 147.834812 0 0 0-67.890294-37.129281l-0.398017-60.725992 61.294587-0.170579a36.788124 36.788124 0 0 0 26.041671-10.462156c6.936864-6.823145 10.803313-16.034391 10.803313-25.700513a36.958703 36.958703 0 0 0-37.072422-36.10581l-61.237728 0.113719-0.227438-100.925689a36.958703 36.958703 0 0 0-37.072422-34.456883 36.958703 36.958703 0 0 0-37.072422 34.456883l0.909753 234.090739a143.854644 143.854644 0 0 0-105.81561 101.209986 142.205717 142.205717 0 0 0 38.664489 140.67051 149.142581 149.142581 0 0 0 105.019576 42.076062h0.05686z m84.152124-143.286049a78.40931 78.40931 0 0 1-23.994728 56.859543 83.810966 83.810966 0 0 1-116.334625 0.227439 79.091624 79.091624 0 0 1-0.284297-113.377929c15.408936-15.181498 36.219529-23.710429 57.996734-23.539851 44.179865-0.170579 82.446337 37.129282 82.560056 80.001377v-0.113719z"  horiz-adv-x="1024" />

    
    <glyph glyph-name="jiaose1" unicode="&#58956;" d="M972.888 56.736c-0.003 139.786-80.267 259.269-193.774 307.996 54.974 39.618 91.202 107.115 91.202 183.765 0 104.65-67.5 192.23-158.103 215.007-0.84 0.22-1.629 0.103-2.396-0.218-1.032 0.104-2.03 0.343-3.078 0.343-19.357 0-35.047-16.93-35.047-37.805 0-18.856 12.837-34.352 29.577-37.204 2.98-1.31 6.887-2.308 7.04-2.367 52.47-19.206 90.23-72.708 90.23-135.79 0-70.341-46.976-128.792-108.93-141.026-0.088-0.008-0.161-0.18-0.248-0.227-20.61-1.405-36.983-19.697-36.983-42.276 0-22.919 16.85-41.482 37.902-42.387 0.148-0.076 0.274-0.324 0.424-0.334 124.602-13.688 212.926-128.16 212.926-267.485 0-20.62 15.508-37.344 34.634-37.344 18.658 0 33.76 15.956 34.488 35.888 0.024 0.194 0.139 0.35 0.139 0.542 0 0.07-0.022 0.14-0.022 0.223 0.01 0.233 0.022 0.458 0.022 0.686v0.013h-0.003M557.914 358.534c65.646 47.436 108.888 128.095 108.888 219.718 0 145.993-109.742 264.355-245.123 264.355-135.376 0-245.125-118.362-245.125-264.355 0-91.63 43.25-172.282 108.887-219.718C149.74 300.13 53.793 157.204 53.793-9.982c0-9.416 0.496-18.681 1.163-27.901h0.062c0-20.35 15.293-36.831 34.165-36.831 18.861 0 34.158 16.48 34.158 36.83 0 1.148-0.216 2.228-0.315 3.352-0.657 8.111-1.223 16.236-1.223 24.55 0 178.61 134.253 323.388 299.873 323.388s299.877-144.779 299.877-323.388c0-8.618-0.565-17.096-1.27-25.5-0.002-0.439-0.118-0.837-0.118-1.278 0-0.138 0.04-0.264 0.04-0.393-0.022-0.24-0.014-0.494-0.04-0.73h0.113c0.565-19.804 15.549-35.716 34.048-35.716 18.508 0 33.49 15.902 34.057 35.717h0.074c0.641 9.224 1.1 18.495 1.1 27.887 0.006 167.199-95.935 310.125-231.643 368.529M421.679 388.36c-97.245 0-176.076 85.019-176.076 189.892 0 104.868 78.831 189.886 176.076 189.886 97.246 0 176.075-85.017 176.075-189.886 0-104.873-78.829-189.892-176.075-189.892m0 0z"  horiz-adv-x="1024" />

    
    <glyph glyph-name="zidian" unicode="&#59158;" d="M349.296361 548.800393h328.588737c14.139022 0 25.600051 11.462053 25.600051 25.600051 0 14.137998-11.461029 25.600051-25.600051 25.600052H349.296361c-14.137998 0-25.600051-11.462053-25.600051-25.600052 0-14.139022 11.462053-25.600051 25.600051-25.600051zM349.296361 385.600451h328.588737c14.139022 0 25.600051 11.461029 25.600051 25.600051 0 14.137998-11.461029 25.600051-25.600051 25.600051H349.296361c-14.137998 0-25.600051-11.462053-25.600051-25.600051 0-14.139022 11.462053-25.600051 25.600051-25.600051zM894.998951 140.800026v51.200102h-0.001024V764.799866c0 44.277436-36.310997 80.000032-80.896448 80.000032H205.846228c-44.584428 0-80.896448-35.722596-80.896448-80.000032v-707.199751c0-74.321706 61.067844-134.400013 136.191822-134.400013h633.587196v0.00307c0.090051 0 0.179079-0.00307 0.269129-0.00307v51.200103c-47.032176 0-84.99172 37.344536-84.991719 83.19991 0.001023 45.855374 37.960567 83.19991 84.992743 83.199911zM205.846228 793.599795h608.256275c16.493649 0 29.696346-12.988826 29.696345-28.799929v-572.799738H261.141602c-32.129768 0-61.681828-10.996448-84.99172-29.389354V764.799866c0 15.812127 13.202697 28.79993 29.696346 28.799929z m-29.696346-735.99968c0 45.855374 37.959543 83.19991 84.99172 83.199911h526.891152c-18.296715-22.871917-29.225625-51.760874-29.225625-83.199911s10.929934-60.327994 29.225625-83.19991H261.141602c-47.032176 0-84.99172 37.344536-84.99172 83.19991z"  horiz-adv-x="1024" />

    
    <glyph glyph-name="quxiaoshoucang" unicode="&#58995;" d="M274.666667-21.333333a14.464 14.464 0 0 0-8.661334 2.88 15.232 15.232 0 0 0-5.845333 14.72l46.037333 274.602666-195.093333 194.496a15.253333 15.253333 0 0 0-3.712 15.424 14.848 14.848 0 0 0 11.882667 10.24l269.632 40.064L509.44 780.928a14.72 14.72 0 0 0 13.226667 8.405333c5.589333 0 10.709333-3.242667 13.184-8.405333l120.533333-249.813333 269.653333-40.106667c5.546667-0.810667 10.133333-4.778667 11.882667-10.24a15.296 15.296 0 0 0-3.712-15.402667l-195.114667-194.496 46.058667-274.602666a15.253333 15.253333 0 0 0-5.845333-14.72 14.357333 14.357333 0 0 0-15.488-1.130667L522.666667 110.037333l-241.152-129.621333a14.677333 14.677333 0 0 0-6.848-1.728z m59.306666 311.68c3.370667-3.456 9.002667-19.498667 8.192-24.384l-47.36-245.76 221.653334 124.117333a16.533333 16.533333 0 0 0 14.762666 0l219.008-116.864-46.869333 246.336c0 13.44 5.824 19.413333 9.194667 22.890667l173.909333 167.872-235.754667 33.536c-8.853333 0-21.226667 13.333333-23.317333 17.770666l-104.192 227.413334-106.325333-230.976c-2.112-4.437333-25.109333-13.482667-29.802667-14.208l-231.893333-33.536 178.773333-174.229334zM852.074667 768l20.650666-22.4L153.088 20.16 128 43.946667"  horiz-adv-x="1024" />

    
    <glyph glyph-name="caozuo_yanjing" unicode="&#58883;" d="M301.891 384c0 57.665 23.861 110.688 61.641 148.468 38.444 38.444 90.804 62.304 149.131 62.304 7.954 0 15.907-3.977 21.21-9.28 5.302-5.302 8.617-12.594 8.617-21.21 0-8.617-3.314-15.907-8.617-21.21-5.302-5.302-13.257-8.617-21.21-8.617-41.093 0-78.875-17.233-106.048-44.407s-44.407-64.292-44.407-106.048c0-41.093 17.233-78.875 44.407-106.048s64.292-44.407 106.048-44.407c41.093 0 78.875 17.233 106.048 44.407s44.407 64.292 44.407 106.048c0 7.954 3.314 15.907 8.617 21.21 5.302 4.64 12.594 8.617 21.21 8.617 7.954 0 15.244-3.977 21.21-8.617 5.302-5.302 9.28-13.257 9.28-21.21 0-57.665-23.861-110.688-62.304-149.131-37.78-37.78-90.142-61.641-148.468-61.641s-110.688 23.861-149.131 61.641c-37.78 38.444-61.641 91.466-61.641 149.131zM512 53.92399999999998c-113.34 0-219.388 31.814-305.551 88.816-86.828 55.675-169.014 136.537-202.818 232.645-1.326 3.314-1.987 5.966-1.987 9.28 0 3.314 0.662 5.966 1.987 9.28 33.804 95.443 115.99 175.643 202.818 231.982 86.164 56.338 192.214 88.816 305.551 88.816s219.388-31.814 305.551-88.816c86.828-55.675 169.014-136.537 202.818-232.645 1.326-3.314 1.987-5.966 1.987-9.28 0-3.314-0.662-5.966-1.987-9.28-33.804-96.106-115.99-176.305-202.818-232.645-86.164-56.338-192.214-88.153-305.551-88.153zM68.585 384c30.489-80.862 104.723-147.805 178.294-194.864 74.896-47.722 166.364-74.896 265.121-74.896s190.224 27.174 265.121 74.896c73.571 47.058 147.805 114.666 178.294 194.864-30.489 80.862-104.723 147.805-178.294 194.864-74.896 47.058-166.364 74.896-265.121 74.896s-190.224-27.838-265.121-74.896c-73.571-47.058-147.143-114.002-178.294-194.864z"  horiz-adv-x="1024" />

    
    <glyph glyph-name="mima" unicode="&#58917;" d="M799 474.6H331.3v76.3c0 104 84.7 188.7 188.8 188.7s188.8-84.8 188.8-188.9c0-14.1 11.4-25.5 25.5-25.5s25.5 11.4 25.5 25.5c0 132.3-107.6 239.9-239.8 239.9-64.1 0-124.3-24.9-169.6-70.2-45.3-45.3-70.2-105.4-70.2-169.5v-76.3h-53.7c-31.3 0-56.3-25-56.3-56.2v-387c0-31.3 25.1-57.1 56.3-57.1h572.3c31.3 0 57 25.8 57 57.1v387c0.1 31.2-25.6 56.2-56.9 56.2z m6-443.8c0-3.1-2.5-5.7-5.7-5.7H226.9c-3.1 0-5.7 2.5-5.7 5.7V417.9c0 3.1 2.5 5.7 5.7 5.7h572.3c3.1 0 5.7-2.5 5.7-5.7v-387.1h0.1zM508.5 342.5c-28.8 0-52.1-23.3-52.1-52.1 0-19 10.2-35.7 25.5-44.8v-101.1c0-14 11.5-25.5 25.5-25.5s25.5 11.5 25.5 25.5v99.8c16.6 8.7 27.8 26.1 27.8 46.1-0.1 28.8-23.4 52.1-52.2 52.1z m0 0"  horiz-adv-x="1024" />

    
    <glyph glyph-name="cssz" unicode="&#58994;" d="M620.66357422-65.05781249999995c-34.60078125 0-63.54580078 20.57167969-79.51552735 56.50400391-7.20878906 16.19121094-15.24902344 21.34863281-20.68330078 23.78847656-9.53789062 4.38046875-16.5796875 3.16054687-25.72910156-3.82587891-7.37490234-5.60039063-12.30996094-11.81074219-15.02666016-18.96416015-16.35820312-42.14267578-59.66455078-64.10039063-104.52392578-55.5609375-42.80800781 8.04023438-76.90957031 23.01152344-104.3024414 45.69082031-19.74023438 16.41357422-31.05175781 35.04462891-34.60078125 57.05859375-3.04980469 19.01953125 1.71914063 35.1 6.26572265 46.96611328 3.71513672 9.81474609 6.54345703 17.91035156 6.21035157 25.39599609-0.38847656 7.31953125-5.878125 13.80673828-12.58681641 14.6944336-12.91992188 1.71914063-26.3390625-1.27529297-39.59121094-4.32509766-37.20673828-8.48408203-70.25537109 3.71513672-92.76855468 33.76933594-23.78759766 31.66171875-37.26210938 67.48242188-39.97968751 106.46367187-3.04980469 42.75263672 15.63662109 75.02431641 52.62275391 90.7163086 13.19677734 5.60039063 22.23544922 13.69599609 27.55898438 24.67529297 4.71357422 9.70400391 1.940625 14.30595703-1.0538086 17.79960937-10.42470703 12.53144531-15.47050781 15.58125-17.578125 16.35820313C72.70419922 430.72353516 55.73603516 485.61914063 66.10537109 530.14541016c6.48808594 28.05820313 16.41357422 60.49599609 40.42353516 88.22109375 23.89921875 27.50361328 53.28808594 37.48447266 85.22753906 28.33505859l5.98886719-1.71914062c9.87011719-2.88369141 18.35419922-5.32353516 25.89521484-5.32353516 26.3390625 1.66376953 27.33662109 16.30195313 27.78046875 22.56855469l0.66533203 10.6461914c0.27685547 2.27373047-0.38847656 18.90878906-2.38447265 26.89365235-8.59482422 34.1015625 2.66132813 65.98564453 31.77333984 89.6633789 28.83427734 23.51074219 63.93427734 37.040625 110.51279297 42.58564453 38.26054688 4.60195313 67.81552734-13.30839844 84.33984375-48.57451171 5.43427734-11.42314453 9.759375-18.18808594 14.97128906-23.23388672 13.03066406-12.58681641 39.20361328-5.21191406 47.29921875 11.58925781 4.8796875 10.09160156 11.20078125 20.18408203 18.74179688 30.05419922 18.07646484 23.45537109 44.97011719 34.32392578 75.35742187 29.94345703 28.2796875-4.21435547 64.93271484-12.42070312 96.5390625-38.70439453 18.02109375-14.97128906 35.54384766-32.77089844 41.25498047-60.93984375 4.10361328-20.23945313-1.82988281-37.20673828-6.21035156-49.57294922-2.82832031-8.15097656-3.88125-15.24902344-3.21591797-22.34619141 1.05380859-11.64462891 12.36533203-22.67929687 23.73310547-23.06689453 10.09160156 0.83144531 19.96171875 1.71914063 28.83427734 5.43427735 12.19921875 5.04580078 24.3984375 7.59638672 36.20917969 7.59638671 19.29638672 0 47.07773438-6.70957031 70.08925781-38.75976562 21.51474609-29.99882813 34.04619141-65.54267578 38.42666016-108.62753906 3.82587891-37.48447266-15.52587891-68.64785156-53.01035156-85.39365235-8.04023438-3.60439453-14.30595703-7.98486328-19.46337891-13.5852539-6.65419922-7.09804687-9.31552734-16.41357422-7.54101562-25.72910157 1.71914063-9.14941406 7.59638672-16.69042969 16.02509765-20.73867187 15.24902344-7.15341797 32.54941406-16.96816406 45.63544922-34.93388672 15.41513672-20.96015625 20.73867188-45.91318359 15.80361328-74.02587891-4.32509766-25.17451172-13.25302734-62.27050781-40.47890625-93.37851562-25.72910156-29.38886719-53.73105469-35.59921875-72.69521484-35.59921875-8.04023438 0-16.35820312 1.10917969-24.61992188 3.21591797-13.86298828 3.60439453-28.11357422 7.04179688-42.41953125 4.26972656-6.04423828-1.10917969-13.75136719-9.81474609-14.13984375-16.08046875-0.72070313-10.48007813 0.22148437-18.02109375 2.9944336-24.28681641 18.02109375-40.64501953 4.21435547-87.16816406-33.54697266-113.11875-29.44423828-20.18408203-62.54824219-32.88164062-98.4796875-37.70595703-3.99462891-0.55371094-7.93125-0.77519531-11.75800781-0.77519531zM510.31777344 81.83027344000004c12.25458984 0 24.56455078-2.71669922 36.59677734-8.15097656 23.17851562-10.53544922 40.92275391-29.44423828 52.78886719-56.22626954 8.20634766-18.40957031 17.79960937-18.40957031 20.96015625-18.40957031l3.21591797 0.22148438c26.22832031 3.49365234 49.35058594 12.36533203 70.75458984 27.05976562 9.31552734 6.37646484 17.85498047 19.24101562 11.20078125 34.32392578-9.31552734 21.07089844-9.26015625 41.19960938-8.37333984 54.50800782 2.43984375 35.70996094 31.77333984 68.53623047 66.70634765 74.85820312 25.45136719 4.60283203 50.40439453-0.27685547 69.81152344-5.26816406 9.09404297-2.27373047 16.91191406-5.93349609 33.10400391 12.53144531 12.80917969 14.58369141 20.68330078 33.76933594 25.56298828 62.10439453 2.38447266 13.640625-0.88681641 20.40556641-4.38046875 25.17451172-4.43583984 6.09960938-11.75537109 10.36933594-21.34863281 14.91591797-27.11513672 12.80917969-45.91318359 37.09599609-51.56894532 66.59560547-5.65576172 29.61035156 2.9390625 59.27607422 23.51074219 81.34541015 10.97929687 11.86611328 24.12070313 21.23789062 40.20117188 28.50117188 16.85654297 7.48564453 16.02509766 15.30439453 15.5258789 20.4609375-3.21591797 31.66171875-11.97773437 57.05859375-26.78291015 77.68564453-8.65019531 12.03310547-15.41513672 12.03310547-17.96572266 12.03310547-3.32666016 0-7.26416016-0.88681641-11.58925781-2.71669922-16.52431641-6.87568359-33.71396484-10.36933594-50.90361328-10.36933594-48.79599609 1.77451172-86.16972656 37.53984375-90.16259766 81.51152344-1.44140625 16.30195313 0.72070313 32.43867187 6.65419922 49.23984375 2.16298828 6.26572266 4.43583984 12.6984375 3.82587891 15.63662109-1.71914063 8.37333984-8.15097656 15.02666016-19.40800782 24.3984375-15.35976562 12.75380859-34.76777344 20.07333984-65.04345703 24.56455078-7.59638672 0.44384766-11.20078125-0.66533203-14.97128906-5.54501953-4.93505859-6.43183594-8.92792969-12.75380859-11.92148438-18.90878906-15.96972656-33.159375-50.40439453-54.61875-87.6665039-54.61875-23.4 0-45.41396484 8.81630859-61.99365235 24.84140625-13.86298828 13.47451172-22.06933594 28.77890625-28.33505859 41.97568359-5.821875 12.47607422-11.58925781 12.47607422-15.35976562 12.47607422-37.37373047-4.26972656-61.99365234-13.36376953-81.0131836-28.83427734-12.42070312-10.14697266-11.92148438-17.07890625-10.03623047-24.45380859 2.99443359-12.08847656 4.49121094-37.20673828 4.49121094-37.20673829l0.11074219-1.8852539-1.10917969-18.46494141c-3.27128906-46.57851563-36.81914063-78.79482422-85.55976562-82.01074219l-6.21035157-0.16611328c-16.63505859 0-31.05175781 4.15898438-43.75019531 7.8741211l-5.60039063 1.60839843c-6.37646484 0.72070313-11.03466797 0.83144531-19.29638671-8.65019531-14.80517578-17.07890625-21.459375-39.31435547-26.44980469-60.77373047-3.16054687-13.58525391-0.94306641-36.26455078 18.18808594-43.02949218 19.62949219-6.93105469 34.60078125-22.67929687 45.46933593-35.65458985 20.73867188-24.84140625 24.17607422-56.559375 9.48164063-86.94580078-12.25458984-25.22988281-32.49404297-43.91630859-60.16376953-55.67167969-8.31796875-3.54902344-15.08291016-8.04023438-13.6959961-27.2258789 1.82988281-26.50517578 10.97929687-50.84824219 27.22587891-72.47373047 10.53544922-14.02910156 17.79960937-11.97773437 27.17050781-9.8147461 18.74179688 4.32509766 40.03505859 8.42871094 62.4366211 5.43427735 37.53984375-4.93505859 66.20800781-36.59765625 68.09326172-75.24580078 0.88681641-19.79560547-4.60195313-36.0984375-10.31396485-51.12509766-2.55058594-6.76494141-3.38203125-10.81318359-2.82832031-14.02910156 0.72070313-4.65820313 2.71669922-10.03623047 12.25458984-17.96572266 18.96416016-15.74824219 42.91875-25.89521484 75.24580078-31.99482422 2.60595703-0.49921875 5.21191406-0.72070313 7.81875-0.72070312 18.57568359 0 23.4 12.30996094 24.95302735 16.35820312 6.98642578 18.24345703 19.18564453 34.1015625 36.0984375 46.96611328 16.97080078 12.86367187 35.21425781 19.35175781 54.34453125 19.35175782zM508.65400391 169.10830078000004c-117.22236328 0-212.92910156 96.76054688-213.31757813 215.64667969-0.38847656 119.38447266 93.37851563 214.03828125 213.5390625 215.53505859 119.71757813 0 215.70205078-96.26132812 216.64423828-214.59287109 0.9984375-118.27529297-95.31914063-215.42431641-214.64824218-216.58886719h-2.21748047z m2.9390625 367.08134766c-86.44746094-1.05380859-152.43310547-67.48330078-152.1553711-151.2131836 0.27685547-83.67451172 67.20556641-151.76777344 149.2171875-151.76777343h1.55302735c84.06298828 0.83144531 151.87851563 68.98007813 151.21318359 151.93388671-0.66621094 83.28691406-67.87265625 151.04707031-149.82802734 151.04707032z"  horiz-adv-x="1024" />

    
    <glyph glyph-name="shuaxin1" unicode="&#58989;" d="M750.933333 782.222222C659.911111 833.422222 551.822222 856.177778 455.111111 839.111111c-22.755556-5.688889-39.822222-22.755556-28.444444-45.511111 5.688889-17.066667 22.755556-28.444444 39.822222-28.444444 85.333333 11.377778 170.666667-5.688889 250.311111-51.2 182.044444-102.4 250.311111-329.955556 164.977778-512-5.688889-17.066667-17.066667-28.444444-17.066667-28.444445l-79.644444 45.511111-17.066667-256c5.688889-5.688889 244.622222 119.466667 244.622222 119.466667l-79.644444 45.511111 17.066666 34.133333c96.711111 227.555556 11.377778 494.933333-199.111111 620.088889zM312.888889 25.6C119.466667 133.688889 56.888889 378.311111 164.977778 571.733333l85.333333-45.511111 17.066667 250.311111L22.755556 657.066667l79.644444-45.511111c-130.844444-233.244444-39.822222-523.377778 170.666667-648.533334 96.711111-56.888889 204.8-73.955556 307.2-56.888889 22.755556 5.688889 34.133333 22.755556 28.444444 45.511111-5.688889 17.066667-22.755556 28.444444-39.822222 28.444445-85.333333-17.066667-176.355556 0-256 45.511111z"  horiz-adv-x="1080" />

    
    <glyph glyph-name="chakan" unicode="&#58924;" d="M928.842 383.909c0 5.006-0.846 9.193-1.087 9.692-0.182 2.48-1.028 7.001-1.815 9.374-0.21 0.59-0.484 1.21-0.724 1.8-0.425 1.361-0.877 2.691-1.391 3.75-76.872 168.137-242.376 281.144-411.783 281.144-169.375 0-334.865-112.903-411.388-280.13-0.922-1.816-1.573-3.554-1.981-5.067-0.181-0.498-0.393-0.967-0.559-1.406-1.512-4.43-1.542-7.514-1.421-6.713-0.71-3.25-1.361-9.722-1.361-9.722-0.181-1.95-0.181-3.507 0.03-5.443 0 0 0.65-5.655 0.968-6.803 0.09-1.602 0.483-3.932 0.952-6.049h-0.03a27.825 27.825 0 0 1 1.738-5.291c0.394-1.33 0.863-2.57 1.271-3.508 76.976-168.166 242.437-281.204 411.781-281.204 169.437 0 334.942 112.946 410.937 279.33a30.065 30.065 0 0 1 2.448 6.017c0.242 0.544 0.455 1.028 0.605 1.512 1.332 3.872 1.603 7.227 1.482 7.227l-0.029-0.03c0.543 2.69 1.357 6.711 1.357 11.52z m-56.124-2.056c-0.03-0.122-0.091-0.272-0.151-0.394-0.09-0.362-0.24-0.786-0.333-1.21-68.404-147.42-212.83-246.337-360.192-246.337-146.997 0-291.168 98.643-360.252 246.58-0.167 0.513-0.288 0.998-0.47 1.48-0.03 0.485-0.12 0.878-0.15 1.151-0.06 0.3-0.12 0.725-0.166 1.089v0.377c0.166 0.62 0.286 1.24 0.348 1.92 0.12 0.362 0.211 0.71 0.348 1.103 68.432 147.498 212.98 246.46 360.341 246.46 147.421 0 291.94-99.052 360.162-246.323 0.06-0.287 0.122-0.53 0.213-0.726 0.06-0.242 0.12-0.484 0.24-0.741 0.152-1.104 0.273-2.193 0.424-2.736-0.18-0.574-0.27-1.119-0.362-1.693zM512.041 522.94c-76.598 0-138.954-62.325-138.954-138.939 0-76.599 62.356-138.955 138.954-138.955 76.599 0 138.955 62.356 138.955 138.955 0 76.614-62.356 138.94-138.955 138.94z m0-222.312c-45.935 0-83.371 37.407-83.371 83.372 0 45.95 37.436 83.356 83.371 83.356 45.965 0 83.374-37.407 83.374-83.356 0-45.965-37.409-83.372-83.374-83.372z"  horiz-adv-x="1024" />

    
    <glyph glyph-name="biyan" unicode="&#58882;" d="M1017.2 562.3c10 11.4 8.8 28.8-2.6 38.8-11.4 10-28.8 8.8-38.8-2.6-54.4-62.2-124.3-113.6-202-148.6C692 413 603.9 394.3 512 394.3S332 413 250.2 449.9c-77.8 35-147.6 86.4-202 148.6-10 11.4-27.3 12.6-38.8 2.6-11.4-10-12.6-27.3-2.6-38.8 45.2-51.6 100-96.4 160.8-131.7L19.5 247.10000000000002c-9.5-11.8-7.7-29.1 4.1-38.6 5.1-4.1 11.2-6.1 17.2-6.1 8 0 16 3.5 21.4 10.2l155 192c3.4-1.6 6.9-3.2 10.4-4.8 80.8-36.4 167.1-56.5 256.9-59.9v-152.4c0-15.2 12.3-27.5 27.5-27.5s27.5 12.3 27.5 27.5V339.9c89.8 3.4 176.1 23.5 256.9 59.9 4 1.8 8 3.7 12 5.6l153.3-192.6c5.4-6.8 13.4-10.4 21.5-10.4 6 0 12 2 17.1 6 11.9 9.4 13.8 26.7 4.4 38.6L857.8 431.5c60.3 35.2 114.6 79.6 159.4 130.8z"  horiz-adv-x="1024" />

    
    <glyph glyph-name="shoucang" unicode="&#58881;" d="M773.46304-109.44c-14.37184 0-30.57664 4.14208-45.61408 11.65824l-214.26688 107.14624-215.61344-106.99264c-13.67552-7.26528-29.30176-11.10016-45.22496-11.10016-20.92032 0-41.35424 6.69184-57.53856 18.82624-30.18752 22.64064-45.66016 61.83424-38.51776 97.54624l44.11904 228.7872L31.77472 393.98912c-26.00448 26.0096-36.31616 65.50528-26.27584 100.63872l0.3584 1.16224c12.27264 36.8128 42.77248 62.63808 79.72352 67.584l234.83904 42.7008 105.3952 214.08768c16.93696 33.88928 51.38432 55.68512 87.808 55.68512 37.99552 0 73.28768-22.58432 88.09984-56.27904l105.0624-213.4016 234.9056-41.0624c37.03296-5.19168 68.31616-32.55296 78.23872-68.37248 11.5712-35.6864 2.24256-74.31168-24.44288-100.99712l-0.59392-0.57856-168.53504-158.71488 42.56256-229.1712c6.86592-36.64896-7.69536-73.68192-38.03648-96.75264-15.72864-12.8768-36.10624-19.95776-57.4208-19.95776z m-259.78368 181.14048l239.13472-119.57248c7.01952-3.51232 15.12448-5.76512 20.65408-5.76512 8.55552 0 16.45568 2.65728 22.2464 7.4752l1.12128 0.896c13.60384 10.19904 20.1984 26.3936 17.22368 42.28608l-48.13312 259.15904 190.35648 179.26656c11.63776 11.83232 15.6416 28.81536 10.43968 44.42624l-0.49152 1.63328c-3.968 14.8992-17.04448 26.29632-32.53248 28.3648l-1.10592 0.17408-263.33696 46.03904-118.49216 240.7424c-5.75488 13.44512-21.376 23.19872-37.13024 23.19872-15.47776 0-30.32064-9.69216-37.82144-24.6784l-117.73952-239.1552-264.73472-48.09216c-16.09216-2.00704-28.5696-12.6976-34.33984-29.36832-4.10112-15.22176 0.76288-33.5616 11.93984-44.98432l190.51008-177.55648-50.00704-259.30752c-3.00544-15.03744 4.10112-32.29184 17.24416-42.14272 6.58944-4.95104 15.1296-7.65952 24.05888-7.65952 6.89152 0 13.53728 1.60256 19.21536 4.67456l0.82944 0.42496 240.89088 119.52128zM773.20192 421.03296a11.9808 11.9808 0 0 0-2.21696 0.19968l-173.79328 30.38208-77.78304 157.99808a12.83584 12.83584 0 0 0 23.02976 11.34592l72.01792-146.29376 160.95232-28.13952a12.83072 12.83072 0 0 0 10.42432-14.85312 12.84096 12.84096 0 0 0-12.63104-10.63936z"  horiz-adv-x="1024" />

    
    <glyph glyph-name="yiwen" unicode="&#58973;" d="M563.2 335.12727299999995c79.127273 25.6 125.672727 107.054545 107.054545 190.836363-13.963636 62.836364-62.836364 111.709091-125.672727 125.672728-48.872727 9.309091-100.072727-2.327273-137.309091-32.581819-39.563636-30.254545-60.509091-76.8-60.509091-128 0-13.963636 9.309091-23.272727 23.272728-23.272727s23.272727 9.309091 23.272727 23.272727c0 34.909091 16.290909 67.490909 44.218182 90.763637s62.836364 30.254545 100.072727 23.272727c44.218182-9.309091 79.127273-44.218182 88.436364-88.436364 11.636364-60.509091-20.945455-116.363636-76.8-137.30909-37.236364-11.636364-60.509091-46.545455-60.509091-83.781819v-16.290909c0-13.963636 9.309091-23.272727 23.272727-23.272727s23.272727 9.309091 23.272727 23.272727v16.290909c0 16.290909 11.636364 32.581818 27.927273 39.563637zM514.327273 169.89090899999997m-32.581818 0a32.581818 32.581818 0 1 1 65.163636 0 32.581818 32.581818 0 1 1-65.163636 0ZM923.927273 686.545455c-6.981818 9.309091-23.272727 11.636364-32.581818 4.654545-9.309091-6.981818-11.636364-23.272727-4.654546-32.581818C947.2 579.490909 977.454545 484.072727 977.454545 384c0-256-209.454545-465.454545-465.454545-465.454545S46.545455 128 46.545455 384 256 849.454545 512 849.454545c100.072727 0 195.490909-30.254545 274.618182-90.763636 9.309091-6.981818 25.6-4.654545 32.581818 4.654546s4.654545 25.6-4.654545 32.581818C726.109091 861.090909 621.381818 896 512 896 230.4 896 0 665.6 0 384s230.4-512 512-512 512 230.4 512 512c0 109.381818-34.909091 214.109091-100.072727 302.545455z"  horiz-adv-x="1024" />

    
    <glyph glyph-name="shoucang1" unicode="&#59021;" d="M286.72-52.906667c-17.066667 0-34.133333 6.826667-47.786667 17.066667-23.893333 20.48-37.546667 54.613333-34.133333 85.333333l37.546667 201.386667-143.36 136.533333c-23.893333 23.893333-27.306667 61.44-23.893334 88.746667 10.24 37.546667 37.546667 61.44 68.266667 64.853333L341.333333 578.56l88.746667 191.146667c20.48 30.72 47.786667 47.786667 81.92 47.786666s61.44-17.066667 78.506667-47.786666l88.746666-191.146667 197.973334-34.133333c30.72-6.826667 58.026667-30.72 68.266666-61.44 10.24-30.72 3.413333-61.44-17.066666-88.746667l-146.773334-143.36 34.133334-201.386667c3.413333-34.133333-6.826667-64.853333-34.133334-85.333333-17.066667-10.24-30.72-17.066667-51.2-17.066667-17.066667 0-34.133333 6.826667-37.546666 10.24L512 52.906667l-184.32-92.16c-13.653333-10.24-27.306667-13.653333-40.96-13.653334z m225.28 819.2c-13.653333 0-23.893333-6.826667-30.72-20.48l-102.4-211.626666-225.28-44.373334c-20.48-3.413333-23.893333-17.066667-27.306667-27.306666 0-10.24 0-30.72 10.24-40.96l163.84-157.013334L256 42.666667c-3.413333-13.653333 3.413333-27.306667 13.653333-37.546667 10.24-6.826667 23.893333-6.826667 34.133334 0l204.8 105.813333 204.8-105.813333c3.413333-3.413333 10.24-3.413333 17.066666-3.413333s13.653333 0 20.48 6.826666c10.24 6.826667 13.653333 23.893333 13.653334 37.546667l-40.96 228.693333 163.84 160.426667c6.826667 10.24 10.24 23.893333 6.826666 40.96-3.413333 13.653333-17.066667 23.893333-27.306666 27.306667l-225.28 40.96-102.4 211.626666c-3.413333 3.413333-13.653333 10.24-27.306667 10.24z"  horiz-adv-x="1024" />

    
    <glyph glyph-name="dfzq-" unicode="&#58889;" d="M456.533333-10.666667H119.466667c12.8 177.066667 123.733333 296.533333 277.333333 296.533334 51.2 0 96-12.8 134.4-36.266667 17.066667-10.666667 38.4-6.4 49.066667 8.533333l2.133333 2.133334c10.666667 17.066667 6.4 38.4-10.666667 49.066666-19.2 12.8-42.666667 23.466667-64 29.866667 93.866667 40.533333 157.866667 134.4 157.866667 241.066667 0 147.2-119.466667 266.666667-268.8 266.666666S130.133333 727.466667 130.133333 582.4c0-106.666667 64-198.4 157.866667-241.066667C140.8 292.266667 42.666667 142.933333 42.666667-49.066667c0-21.333333 17.066667-38.4 36.266666-38.4h373.333334c21.333333 0 36.266667 17.066667 36.266666 38.4 4.266667 21.333333-12.8 38.4-32 38.4zM204.8 580.266667c0 104.533333 85.333333 189.866667 192 189.866666s194.133333-85.333333 194.133333-189.866666-87.466667-189.866667-194.133333-189.866667c-106.666667 2.133333-192 87.466667-192 189.866667z m738.133333-424.533334h-29.866666c-4.266667 17.066667-10.666667 34.133333-19.2 49.066667l21.333333 21.333333c10.666667 10.666667 14.933333 27.733333 8.533333 40.533334-10.666667 23.466667-40.533333 25.6-55.466666 8.533333l-21.333334-21.333333c-14.933333 8.533333-29.866667 14.933333-46.933333 19.2v27.733333c0 14.933333-8.533333 29.866667-23.466667 34.133333-23.466667 8.533333-46.933333-10.666667-46.933333-34.133333v-29.866667c-17.066667-4.266667-34.133333-10.666667-46.933333-19.2L657.066667 277.333333c-12.8 12.8-34.133333 12.8-49.066667 0-14.933333-12.8-14.933333-36.266667 0-51.2l25.6-25.6c-8.533333-14.933333-14.933333-29.866667-19.2-46.933333h-29.866667c-14.933333 0-29.866667-8.533333-34.133333-23.466667-8.533333-23.466667 10.666667-46.933333 34.133333-46.933333h29.866667c4.266667-17.066667 10.666667-32 19.2-46.933333l-21.333333-21.333334c-10.666667-10.666667-14.933333-27.733333-8.533334-40.533333 10.666667-23.466667 40.533333-25.6 55.466667-8.533333l21.333333 21.333333c14.933333-8.533333 32-17.066667 49.066667-19.2v-29.866667c0-14.933333 8.533333-29.866667 23.466667-34.133333 23.466667-8.533333 46.933333 10.666667 46.933333 34.133333v32c17.066667 4.266667 34.133333 10.666667 46.933333 19.2l21.333334-21.333333c10.666667-10.666667 27.733333-14.933333 40.533333-8.533333 23.466667 10.666667 25.6 40.533333 8.533333 55.466666l-21.333333 21.333334c8.533333 14.933333 14.933333 29.866667 19.2 46.933333h29.866667c23.466667 0 40.533333 21.333333 34.133333 46.933333-4.266667 17.066667-19.2 25.6-36.266667 25.6z m-157.866666-117.333333c-66.133333-17.066667-123.733333 40.533333-106.666667 106.666667 8.533333 29.866667 32 51.2 59.733333 59.733333 66.133333 17.066667 123.733333-40.533333 106.666667-106.666667-6.4-29.866667-29.866667-53.333333-59.733333-59.733333z m0 0"  horiz-adv-x="1024" />

    
    <glyph glyph-name="user" unicode="&#58880;" d="M504.951 384.02c93.49 0 169.28 74.002 169.28 165.26 0 91.276-75.79 165.248-169.28 165.248-93.486 0-169.287-73.972-169.279-165.248-0.001-91.258 75.793-165.26 169.28-165.26z m77.6-55.098H441.466c-120.767 0-218.678-95.564-218.678-213.45V101.7c0-48.183 97.911-48.229 218.678-48.229H582.55c120.754 0 218.66 1.78 218.66 48.229v13.77c0 117.887-97.898 213.45-218.66 213.45z"  horiz-adv-x="1024" />

    
    <glyph glyph-name="wancheng" unicode="&#59417;" d="M520-96C259.728-96 48 115.744 48 376S259.728 848 520 848a468.72 468.72 0 0 0 275.248-88.528 24 24 0 0 0-28.032-38.976A420.832 420.832 0 0 1 520 800C286.208 800 96 609.792 96 376S286.208-48 520-48 944 142.208 944 376c0 53.6-9.856 105.808-29.28 155.184a24 24 0 1 0 44.656 17.584A469.712 469.712 0 0 0 992 376C992 115.744 780.272-96 520-96z m-90.976 263.584c-6.368 0-12.48 2.528-16.976 7.024L231.04 355.632a24 24 0 0 0 33.92 33.952l164.064-164.08L916.48 712.96a24 24 0 1 0 33.92-33.92L445.984 174.608a24.064 24.064 0 0 0-16.96-7.04z"  horiz-adv-x="1024" />

    
    <glyph glyph-name="shanchu" unicode="&#58891;" d="M788.7 619.1v-551.4c0-65.3-52.9-118.2-118.2-118.2h-315c-65.3 0-118.2 52.9-118.2 118.2V619.1h39.4v-551.4c0-43.5 35.3-78.8 78.8-78.8h315.1c43.5 0 78.8 35.3 78.8 78.8V619.1h39.3zM394.8 146.5V540.3h39.4v-393.8h-39.4z m197 0V540.3h39.4v-393.8h-39.4zM355.5 816h315v-39.4h-315zM158.5 737.2h709v-39.3h-709z"  horiz-adv-x="1024" />

    
    <glyph glyph-name="tuichu" unicode="&#58892;" d="M512-63.1c-246.9 0-447.8 191-447.8 425.7 0 143.6 75.6 276.6 202.1 355.8 12.2 7.6 28.6 4.4 36.6-7.2 8-11.6 4.6-27.2-7.6-34.8C183.7 606.6 117 489.2 117 362.6c0-207.1 177.2-375.5 395-375.5s395 168.4 395 375.5c0 126.7-66.7 244-178.3 313.8-12.2 7.6-15.6 23.2-7.6 34.8 8.1 11.6 24.4 14.7 36.6 7.2 126.6-79.1 202.1-212.1 202.1-355.8 0-234.8-200.9-425.7-447.8-425.7zM512 466.2c-14.6 0-26.4 11.3-26.4 25.1V806c0 13.9 11.8 25.1 26.4 25.1 14.6 0 26.4-11.3 26.4-25.1v-314.7c0-13.8-11.8-25.1-26.4-25.1z"  horiz-adv-x="1024" />

    
    <glyph glyph-name="bianji" unicode="&#58893;" d="M748.3 521.8c0 10.9 8.8 19.7 19.7 19.7s19.7-8.8 19.7-19.7v-472.6c0-43.5-35.3-78.8-78.8-78.8H236.3c-43.5 0-78.8 35.3-78.8 78.8V679.4c0 43.5 35.3 78.8 78.8 78.8h315.1c10.9 0 19.7-8.8 19.7-19.7s-8.8-19.7-19.7-19.7H236.3c-21.8 0-39.4-17.6-39.4-39.4v-630.2c0-21.8 17.6-39.4 39.4-39.4h472.6c21.8 0 39.4 17.6 39.4 39.4V521.8zM486.7 423.4h-164c-15.1 0-27.3 6.3-27.3 19.7 0 13.4 12.2 19.7 27.3 19.7h164c15.1 0 27.3-6.3 27.3-19.7 0-13.4-12.2-19.7-27.3-19.7z m164-196.9h-328c-15.1 0-27.3 6.3-27.3 19.7 0 13.4 12.2 19.7 27.3 19.7h327.9c15.1 0 27.3-6.3 27.3-19.7 0.1-13.4-12.1-19.7-27.2-19.7zM550 548.3L800.6 798.9c7.7 7.7 20.2 7.7 27.8 0 7.7-7.7 7.7-20.2 0-27.8L577.8 520.4c-7.7-7.7-20.2-7.7-27.8 0-7.7 7.7-7.7 20.2 0 27.9z"  horiz-adv-x="1024" />

    
    <glyph glyph-name="sousuo" unicode="&#58894;" d="M933.2-37.2c-7.3-7.3-19.3-7.3-26.6 0L740.2 129.2c9.3 8.5 18.1 17.3 26.6 26.6l166.3-166.3c7.4-7.4 7.4-19.3 0.1-26.7z m-471.7 95.4c-207.8 0-376.2 168.4-376.2 376.2 0 207.8 168.4 376.2 376.2 376.2s376.2-168.4 376.2-376.2c0.1-207.7-168.4-376.2-376.2-376.2z m0 714.8C274.5 773 123 621.5 123 434.5s151.6-338.6 338.6-338.6 338.6 151.6 338.6 338.6c-0.1 187-151.6 338.5-338.7 338.5z"  horiz-adv-x="1024" />

    
    <glyph glyph-name="bixuan" unicode="&#58895;" d="M1024 412.1l-393.1-77.3L905.8-10l-170-117.4-220.4 380.9-223.2-380.9-170 117.2 273.5 344.9L0 411.9l69 191.8 374.5-143.8L407.6 895.4h213.8l-37.3-435.5 374.5 143.8z"  horiz-adv-x="1024" />

    
    <glyph glyph-name="tianjia" unicode="&#58896;" d="M512 384m-512 0a512 512 0 1 1 1024 0 512 512 0 1 1-1024 0ZM535.6 407.6h189c13.1 0 23.6-10.6 23.6-23.6s-10.6-23.6-23.6-23.6h-189v-189c0-13.1-10.6-23.6-23.6-23.6s-23.6 10.6-23.6 23.6v189h-189c-13.1 0-23.6 10.6-23.6 23.6s10.6 23.6 23.6 23.6h189v189c0 13.1 10.6 23.6 23.6 23.6s23.6-10.6 23.6-23.6v-189z"  horiz-adv-x="1024" />

    
    <glyph glyph-name="liebiaoshanchu" unicode="&#58897;" d="M512 384m-512 0a512 512 0 1 1 1024 0 512 512 0 1 1-1024 0ZM551.8 380.4l144.8-144.8c10-10 10-26.2 0-36.2s-26.2-10-36.2 0L515.6 344.2 370.8 199.3c-10-10-26.2-10-36.2 0s-10 26.2 0 36.2l144.8 144.8-144.8 144.9c-10 10-10 26.2 0 36.2s26.2 10 36.2 0l144.8-144.8 144.8 144.8c10 10 26.2 10 36.2 0s10-26.2 0-36.2L551.8 380.4z"  horiz-adv-x="1024" />

    
    <glyph glyph-name="liebiaoshanchuxuanzhong" unicode="&#58898;" d="M512 384m-512 0a512 512 0 1 1 1024 0 512 512 0 1 1-1024 0ZM551.8 380.4l144.8-144.8c10-10 10-26.2 0-36.2s-26.2-10-36.2 0L515.6 344.2 370.8 199.3c-10-10-26.2-10-36.2 0s-10 26.2 0 36.2l144.8 144.8-144.8 144.9c-10 10-10 26.2 0 36.2s26.2 10 36.2 0l144.8-144.8 144.8 144.8c10 10 26.2 10 36.2 0s10-26.2 0-36.2L551.8 380.4z"  horiz-adv-x="1024" />

    
    <glyph glyph-name="biaogeshitu" unicode="&#58899;" d="M912.660873 896H111.339127C75.942584 896 44.345669 879.301631 24.047652 853.40416h-0.999903v-1.199883C9.049116 833.706083 0.749927 810.80832 0.749927 785.910751V-17.910751c0-60.694073 49.595157-110.089249 110.5892-110.089249h801.221756c60.994044 0 110.5892 49.395176 110.5892 110.089249V785.910751C1023.250073 846.604824 973.654917 896 912.660873 896zM336.017186-54.907138H144.835856c-39.096182 0-70.893077 31.096963-70.893077 69.393223V180.369886H336.017186V-54.907138z m0 254.275168H73.942779V482.940338H336.017186v-283.572308z m0 302.670443H73.942779V749.714286H336.017186V502.038473z m333.867396-556.945611H355.115321V180.369886h314.769261V-54.907138z m0 254.275168H355.115321V482.940338h314.769261v-283.572308z m0 302.670443H355.115321V749.714286h314.769261V502.038473z m281.272532-487.652378c0-38.19627-31.896885-69.393223-71.093058-69.393223h-190.981349V180.369886h262.074407v-165.983791z m0 184.981935H689.082707V482.940338h262.074407v-283.572308z m0 302.670443H689.082707V749.714286h262.074407V502.038473z"  horiz-adv-x="1024" />

    
    <glyph glyph-name="baocun" unicode="&#58900;" d="M928.981904-75.10229600000002H95.118092c-0.999957 0-2.199905 0-3.199861 0.099996-1.099952 0-7.499675 0.69997-2.699883 0.099996 4.699796-0.599974-2.2999 0.599974-3.299857 0.799965-3.199861 0.799965-6.299727 2.399896-9.399592 2.99987 5.29977-0.999957 4.099822-1.899918 2.199905-0.799966l-2.099909 0.999957c-1.699926 0.899961-3.399852 1.899918-5.099779 2.99987-1.399939 0.899961-2.699883 2.199905-4.199818 2.99987 0 0 4.199818-3.699839 2.399896-1.799922-0.69997 0.69997-1.499935 1.299944-2.2999 1.899917-1.299944 1.099952-2.499892 2.399896-3.699839 3.69984-0.499978 0.599974-0.999957 1.099952-1.499935 1.59993-1.599931 1.699926-2.099909 4.099822 0.799965-1.299943-1.499935 2.899874-3.799835 5.399766-5.29977 8.099648-0.799965 1.399939-1.299944 3.699839-2.399896 4.699796 0 0 1.899918-5.399766 1.099952-2.899874-0.299987 1.099952-0.899961 2.399896-1.299943 3.499848-0.999957 3.199861-1.699926 6.399722-2.399896 9.599584-0.69997 3.299857 0.599974-5.799748 0.299987-2.399896 0 0.799965-0.099996 1.599931-0.199991 2.2999-0.099996 1.599931-0.099996 3.199861-0.099996 4.799792V800.959685c0 1.599931 0 3.199861 0.099996 4.799791 0 0.799965 0.099996 1.599931 0.199991 2.2999 0.199991 3.399852-0.999957-5.699753-0.299987-2.399895 0.499978 2.099909 0.799965 3.999826 1.399939 5.899744 0.499978 1.699926 0.999957 3.399852 1.599931 4.999783 0.199991 0.69997 0.599974 1.399939 0.799965 2.199904 0.69997 2.499892-1.099952-2.899874-1.099952-2.899874 2.199905 2.099909 3.699839 7.099692 5.499761 9.699579 0.499978 0.599974 0.899961 1.299944 1.299944 1.799922 2.399896 3.499848-0.999957-1.599931-1.399939-1.799922 1.099952 0.599974 2.499892 2.99987 3.399852 3.899831 1.099952 1.299944 2.399896 2.499892 3.799835 3.699839 0.599974 0.499978 1.299944 0.899961 1.699926 1.499935 1.899918 2.2999-4.299813-2.99987-1.799922-1.399939 2.99987 1.899918 5.699753 3.899831 8.799619 5.499761l2.099908 0.999957c3.699839 2.099909-1.599931-0.69997-2.199904-0.799965 1.799922 0.299987 3.899831 1.499935 5.699752 2.099908 1.499935 0.499978 2.99987 0.799965 4.499805 1.099953 0.899961 0.199991 7.299683 1.299944 2.599887 0.699969-4.799792-0.599974 1.599931 0.099996 2.699883 0.099996 0.999957 0 2.199905 0.099996 3.199861 0.099996h801.265227c10.699536 0 21.399071 0.099996 32.098607 0h0.599974c2.199905 0 4.199818-0.099996 6.299726-0.299987 4.699796-0.299987-6.399722 1.099952-0.099995-0.099996 2.099909-0.299987 3.999826-0.899961 5.899744-1.499935 1.699926-0.499978 3.299857-1.099952 4.999783-1.699926 4.299813-1.499935-4.799792 2.499892-0.799966 0.199991 3.299857-1.799922 6.499718-3.699839 9.599584-5.699752 4.699796-3.099865-3.199861 3.099865 0 0a62.985267 62.985267 0 0 0 7.299683-7.299684c2.899874-2.99987-3.199861 4.699796 0 0 1.899918-2.99987 3.699839-5.899744 5.399766-8.899613 2.699883-4.899787-1.399939 4.299813 0.099995 0.099995 0.69997-1.899918 1.399939-3.799835 1.899918-5.699752 0.499978-1.499935 0.799965-2.99987 1.099952-4.499805 0.099996-0.599974 0.199991-2.399896 0.599974-3.099866 0-0.099996-0.599974 5.899744-0.499978 3.099866 0.099996-2.399896 0.299987-4.699796 0.299987-7.099692v-833.963807c0-1.599931 0-3.199861-0.099996-4.799792 0-0.799965-0.499978-2.2999-0.299987-3.099865 0-0.099996 0.999957 5.799748 0.299987 3.199861-0.499978-1.699926-0.69997-3.499848-1.099952-5.29977-0.499978-1.699926-0.899961-3.399852-1.499935-5.099779-0.199991-0.69997-0.599974-1.399939-0.799965-2.199905-1.399939-4.099822 0.599974 1.799922 0.89996 2.099909-1.899918-1.899918-3.099865-6.199731-4.699796-8.599626-0.899961-1.399939-2.2999-2.699883-2.999869-4.199818 0.199991 0.499978 4.199818 4.799792 1.299943 1.799922-0.499978-0.599974-0.999957-1.099952-1.499935-1.699927-1.099952-1.299944-2.399896-2.499892-3.699839-3.699839-0.799965-0.799965-5.599757-4.499805-1.799922-1.799922 3.499848 2.599887-0.69997-0.499978-1.499935-0.999956-1.499935-0.999957-2.99987-1.899918-4.499805-2.699883-1.499935-0.799965-3.199861-1.499935-4.699796-2.399896-2.199905-1.499935 2.699883 1.099952 2.899874 1.099952-0.799965-0.099996-1.899918-0.799965-2.899874-0.999956-3.099865-1.099952-6.299727-1.899918-9.599583-2.599888-6.299727-1.299944 4.699796 0.199991 0.099996-0.099995-2.099909 0.599974-4.099822 0.499978-6.199731 0.399982-13.699405-0.099996-26.898833-11.999479-26.298859-26.298858 0.69997-13.999392 11.499501-26.398854 26.298859-26.298859 37.598368 0.499978 72.296862 22.999002 86.996224 57.697496 5.399766 12.799445 7.799662 26.098867 7.799662 39.998264V799.559745c0 18.999175-4.999783 38.498329-16.099302 54.097653C989.279287 879.656269 960.880519 895.555579 928.781912 895.955562 918.982338 896.055558 908.982772 895.955562 899.083201 895.955562H101.017836c-3.099865 0-6.199731 0.099996-9.199601-0.099996C52.619936 894.055644 19.721364 869.256721 5.821967 832.958296-0.477759 816.659003 0.22221 799.759737 0.22221 782.760474v-814.464653c0-19.999132 5.799748-40.198255 17.799228-56.297557 18.499197-24.798924 46.097999-39.498286 77.19665-39.898268h833.66382c13.699405 0 26.898833 12.099475 26.298859 26.298858-0.599974 14.499371-11.399505 26.49885-26.198863 26.49885zM791.787858 856.857259v-378.783562c0-2.499892-0.69997-5.499761-0.499979-7.999652-0.599974 6.199731 0.599974 3.899831 0 0.89996-0.199991-0.999957-0.499978-1.899918-0.699969-2.999869-0.69997-2.899874-2.2999-5.699753-2.899874-8.699623 1.299944 6.299727 1.399939 3.299857 0.099995 0.799965-0.499978-0.899961-0.899961-1.699926-1.399939-2.599887-1.399939-2.399896-3.099865-4.5998-4.499805-6.8997-1.799922-2.99987 4.499805 4.999783 0.899961 1.299943-0.999957-0.999957-1.899918-2.199905-2.99987-3.299856-0.69997-0.69997-1.399939-1.399939-2.199904-2.099909-1.899918-1.799922-6.699709-4.099822-0.299987-0.69997-2.199905-1.099952-4.099822-2.899874-6.199731-4.099822-1.899918-1.099952-4.899787-2.099909-6.599714-3.399852 3.499848 3.199861 4.499805 1.599931 1.39994 0.699969-1.299944-0.299987-2.399896-0.799965-3.499848-1.299943-2.699883-0.799965-6.399722-0.899961-8.899614-2.099909 1.299944 0.099996 2.599887 0.299987 3.89983 0.499978l-3.099865-0.299987c-0.999957-0.099996-2.099909-0.099996-3.199861-0.099996h-481.979083c-1.299944 0-2.599887 0.199991-3.899831 0.199992-5.29977 0.199991 6.499718-1.299944 0.099996 0.099995-2.699883 0.599974-5.499761 1.299944-8.099649 2.199905-0.899961 0.299987-1.899918 0.69997-2.899874 0.999956-5.099779 1.699926 5.599757-2.899874 0.799966-0.199991-2.199905 1.099952-4.499805 2.2999-6.499718 3.69984l-3.099866 2.099908c-5.29977 3.399852 3.699839-3.399852 0 0-1.799922 1.699926-3.699839 3.299857-5.399765 5.099779-0.799965 0.799965-1.899918 2.899874-2.99987 3.299857 0.299987-0.199991 3.799835-5.399766 1.399939-1.799922-1.399939 2.099909-2.699883 4.099822-3.999826 6.299727-0.69997 1.299944-1.399939 2.599887-2.099909 3.999826-2.499892 4.5998 1.799922-5.399766 0.199991-0.799965-0.899961 2.599887-1.799922 5.29977-2.499892 7.999653-0.299987 1.299944-0.599974 2.499892-0.799965 3.799835-1.299944 5.499761 0.299987-6.499718 0.099996-0.799966l-0.299987 6.499718V857.05725c0 13.699405-12.099475 26.898833-26.298859 26.298859-14.299379-0.69997-26.298859-11.499501-26.298858-26.298859V479.973615c0-16.199297 3.699839-31.598629 11.099518-45.998004 12.199471-23.898963 36.498416-42.698147 62.797275-48.097912 8.199644-1.699926 16.399288-2.399896 24.798923-2.399896h455.580229c14.399375 0 28.498763-0.599974 42.698147 3.099865 42.598151 10.999523 70.796928 50.6978 70.896923 93.895925V857.157246c0 13.699405-12.099475 26.898833-26.298859 26.298858-14.399375-0.999957-26.298859-11.799488-26.298858-26.598845zM618.395383 712.163538v-181.292132c0-13.699405 12.099475-26.898833 26.198863-26.298859 14.199384 0.69997 26.198863 11.499501 26.198863 26.298859V712.063543c0 13.699405-12.099475 26.898833-26.198863 26.298858-14.099388-0.599974-26.198863-11.499501-26.198863-26.198863z"  horiz-adv-x="1024" />

    
    <glyph glyph-name="zuidahua" unicode="&#58901;" d="M886 742.4H779.1v-31.9h81.7l-238-212.8 25.2-22.6L886 688v-73h35.6V742.4zM886 25.6H779.1v31.9h81.7l-238 214.6 25.2 23.4 238-212V153h35.6v-127.4zM102.4 710.5V615H138v73l240-212.9 26.2 22.6-237 212.8h77.7v31.9H102.4zM102.4 61v92H138v-69.5l240 212.9 26.2-24.3-237-214.6h77.7v-31.9H102.4z"  horiz-adv-x="1024" />

    
    <glyph glyph-name="zuixiaohua" unicode="&#58902;" d="M682.7 537h248.2c16.2 0 31-12.2 31-25.5S945.5 486 929.2 486H681c-16.2 0-29.4 12.2-29.4 25.5s14.8 25.5 31.1 25.5z m0 229.4c16.2 0 31-12.2 31-25.5v-229.4c0-13.3-16.4-25.5-32.7-25.5-16.3 0-29.4 10.8-29.4 24.1V740.4c0 13.4 14.8 26 31.1 26z m0-280.4c-7.4 0-14.9 2.2-20.9 6.6-12.7 9.5-13.6 25.6-2.1 36L970 809.1c11.5 10.4 31.2 11.2 43.8 1.7 12.7-9.5 13.6-25.6 2.1-36L705.6 494.3c-6.1-5.5-14.5-8.3-22.9-8.3z m-341.3 51H93.1c-16.2 0-31-12.2-31-25.5S78.5 486 94.8 486H343c16.2 0 29.4 12.2 29.4 25.5s-14.8 25.5-31 25.5z m0 229.4c-16.2 0-31-12.2-31-25.5v-229.4c0-13.3 16.4-25.5 32.7-25.5 16.2 0 29.4 10.8 29.4 24.1V740.4c-0.1 13.4-14.9 26-31.1 26z m0-280.4c7.4 0 14.9 2.2 20.9 6.6 12.7 9.5 13.6 25.6 2.1 36L54 809.1c-11.5 10.4-31.1 11.1-43.8 1.7-12.7-9.5-13.6-25.6-2.1-36l310.3-280.4c6.1-5.6 14.5-8.4 23-8.4z m341.3-255h248.2c16.2 0 31 12.2 31 25.5S945.5 282 929.2 282H681c-16.2 0-29.4-12.2-29.4-25.5s14.8-25.5 31.1-25.5z m0-229.4c16.2 0 31 12.2 31 25.5V256.5c0 13.3-16.4 25.5-32.7 25.5-16.3 0-29.4-10.8-29.4-24.1v-230.3c0-13.4 14.8-26 31.1-26z m0 280.4c-7.4 0-14.9-2.2-20.9-6.6-12.7-9.5-13.6-25.6-2.1-36L970-41.10000000000002c11.5-10.4 31.2-11.2 43.8-1.7 12.7 9.5 13.6 25.6 2.1 36L705.6 273.70000000000005c-6.1 5.5-14.5 8.3-22.9 8.3z m-341.3-51H93.1c-16.2 0-31 12.2-31 25.5S78.5 282 94.8 282H343c16.2 0 29.4-12.2 29.4-25.5s-14.8-25.5-31-25.5z m0-229.4c-16.2 0-31 12.2-31 25.5V256.5c0 13.3 16.4 25.5 32.7 25.5 16.2 0 29.4-10.8 29.4-24.1v-230.3c-0.1-13.4-14.9-26-31.1-26z m0 280.4c7.4 0 14.9-2.2 20.9-6.6 12.7-9.5 13.6-25.6 2.1-36L54-41.10000000000002c-11.5-10.4-31.1-11.2-43.8-1.7-12.7 9.5-13.6 25.6-2.1 36l310.3 280.4c6.1 5.6 14.5 8.4 23 8.4z"  horiz-adv-x="1024" />

    
    <glyph glyph-name="zhiding" unicode="&#58903;" d="M80.8 896h862.4v-71.9H80.8zM538.8 543v-671H467V542.7l-218-218-50.8 50.8 304.9 304.9L808 375.5l-50.8-50.8z"  horiz-adv-x="1024" />

    
    <glyph glyph-name="shujuyuan" unicode="&#58904;" d="M512 896C290.7 896 109.7 819.2 109.7 710.4v-652.8c0-106.7 181-185.6 402.3-185.6s402.3 76.8 402.3 185.6V710.4C914.3 819.2 733.3 896 512 896z m0-42.7c201.1 0 362.1-68.3 362.1-142.9 0-72.5-160.9-142.9-362.1-142.9s-362.1 68.3-362.1 142.9S310.9 853.3 512 853.3z m362.1-795.7c0-72.5-160.9-142.9-362.1-142.9S149.9-17 149.9 57.6V194.1c64.4-61.9 203.2-102.4 362.1-102.4s297.7 40.5 362.1 102.4v-136.5zM512 132.3c-201.1 0-362.1 68.3-362.1 142.9V411.7c64.4-61.9 203.2-102.4 362.1-102.4s297.7 40.5 362.1 102.4v-136.5c0-72.5-161-142.9-362.1-142.9z m0 217.6c-201.1 0-362.1 68.3-362.1 142.9V629.3c64.4-61.9 203.2-102.4 362.1-102.4s297.7 40.5 362.1 102.4v-136.5c0-72.5-161-142.9-362.1-142.9z m255.5 145c0-14.1 10.8-25.6 24.1-25.6s24.1 11.5 24.1 25.6c0 14.1-10.8 25.6-24.1 25.6s-24.1-11.4-24.1-25.6z m0-215.4c0-14.1 10.8-25.6 24.1-25.6s24.1 11.5 24.1 25.6-10.8 25.6-24.1 25.6-24.1-11.5-24.1-25.6z m0-217.6c0-14.1 10.8-25.6 24.1-25.6s24.1 11.5 24.1 25.6c0 14.1-10.8 25.6-24.1 25.6s-24.1-11.5-24.1-25.6z"  horiz-adv-x="1024" />

    
    <glyph glyph-name="gaojingpeizhi" unicode="&#58905;" d="M845.567425-54.807148H178.432575c-20.497998 0-37.096377-16.298408-37.096377-36.596426s16.598379-36.596426 37.096377-36.596426h667.13485c20.497998 0 37.096377 16.298408 37.096377 36.596426s-16.598379 36.596426-37.096377 36.596426zM512 676.621424c-163.784005 0-296.471048-130.987208-296.471048-292.571429v-365.66429h593.042086V384.049995c0 161.58422-132.787033 292.571429-296.571038 292.571429zM289.621717 91.478567V384.049995c0 58.594278 23.197735 113.688898 65.093643 155.184845 41.895909 41.495948 97.89044 64.193731 157.28464 64.193731s115.288741-22.897764 157.28464-64.193731c41.995899-41.395957 65.093643-96.590567 65.093643-155.184845v-292.571428H289.621717zM512 896c-20.497998 0-37.096377-16.298408-37.096377-36.596426v-73.092862c0-20.198028 16.598379-36.596426 37.096377-36.596426s37.096377 16.298408 37.096377 36.596426V859.403574C549.096377 879.701592 532.497998 896 512 896z m309.769749-111.189142c-10.498975 0-21.09794-4.499561-28.397227-12.99873l-47.595352-55.994532c-13.198711-15.398496-11.098916-38.496241 4.499561-51.494971 6.999316-5.699443 15.398496-8.59916 23.897666-8.59916 10.498975 0 21.09794 4.499561 28.397227 12.99873l47.595352 55.994532c13.198711 15.398496 11.098916 38.496241-4.499561 51.494971-6.999316 5.699443-15.498486 8.59916-23.897666 8.59916z m164.783908-281.672493c-2.099795 0-4.29958-0.19998-6.499365-0.599941l-72.992872-12.69876c-20.198028-3.499658-33.596719-22.497803-30.097061-42.39586 3.099697-17.698272 18.798164-30.197051 36.496436-30.197051 2.099795 0 4.29958 0.19998 6.499365 0.599942l72.992872 12.69876c20.198028 3.499658 33.596719 22.497803 30.097061 42.395859-3.099697 17.698272-18.798164 30.197051-36.496436 30.197051zM202.330241 784.810858c-8.49917 0-16.89835-2.899717-23.897666-8.59916-15.598477-12.998731-17.698272-35.996485-4.499561-51.494971l47.595352-55.994532c7.299287-8.59916 17.798262-12.998731 28.397227-12.99873 8.49917 0 16.89835 2.899717 23.897666 8.59916 15.598477 12.998731 17.698272 35.996485 4.499561 51.494971l-47.595352 55.994532c-7.399277 8.49917-17.898252 12.998731-28.397227 12.99873zM37.446343 503.138365c-17.598281 0-33.196758-12.498779-36.496436-30.197051-3.599648-19.898057 9.999024-38.896202 30.097061-42.395859l72.992872-12.69876c2.199785-0.299971 4.29958-0.599941 6.499365-0.599942 17.598281 0 33.196758 12.498779 36.496436 30.197051 3.599648 19.898057-9.999024 38.896202-30.097061 42.39586l-72.992872 12.69876c-2.199785 0.499951-4.39957 0.599941-6.499365 0.599941z"  horiz-adv-x="1024" />

    
    <glyph glyph-name="zhanshipeizhi" unicode="&#58906;" d="M612.80603-98.3c0 11-7.3 18.4-18.3 18.4h-3.7c-139.3-25.8-282.2 11-388.5 106.8C125.30603 93.2 74.00603 185.2 52.00603 284.6l22 11c18.3 7.4 22 25.8 7.3 40.5L30.00603 391.4C8.00603 417.1-2.99397 409.8 0.70603 376.6l14.7-92c0-3.7 0-7.4 3.7-7.4C44.70603 163.1 103.30603 63.7 184.00603-6.2c113.6-99.4 263.9-143.6 417.8-110.4 7.3 3.6 11 11 11 18.3zM411.20603 866.3c0-11 7.3-18.4 18.3-18.4h3.7c139.3 25.8 282.2-11 388.5-106.8 77-66.3 128.3-158.3 150.3-257.7l-22-11c-18.3-7.4-22-25.8-7.3-40.5l51.3-55.2c22-25.8 33-18.4 29.3 14.7l-14.7 92c0 3.7 0 7.4-3.7 7.4-25.6 114.1-80.6 213.5-164.9 283.4C726.40603 873.6 576.10603 917.8 422.20603 884.7c-3.7-3.7-11-11.1-11-18.4zM509.10603 417c7.3-3.7 22-3.7 25.7 0l252.9 147.3-249.2 143.5c-7.3 3.7-22 3.7-25.7 0L259.90603 560.5 509.10603 417z m-18.3 323.9c18.3 11 47.7 11 62.3 0L828.00603 582.6c18.3-11 18.3-25.8 0-36.8L553.10603 387.5c-18.3-11-47.7-11-62.3 0L215.90603 545.8c-18.3 11-18.3 25.8 0 36.8l274.9 158.3zM219.60603 199.8c0-7.4 7.3-18.4 14.7-22.1l241.9-139.9V306.5c0 7.4-7.3 18.4-14.7 22.1L219.60603 468.5v-268.7z m260.2 161.9c18.3-11 33-36.8 33-55.2V12c0-22.1-14.7-29.5-33-18.4L215.90603 148.2c-18.3 11-33 36.8-33 55.2V498c0 22.1 14.7 29.5 33 18.4l263.9-154.7z m106.3-29.4c-7.3-3.7-14.7-14.7-14.7-22.1v-268.7l241.9 139.9c7.3 3.7 14.7 14.7 14.7 22.1V472.2L586.10603 332.3z m249.3 184.1c18.3 11 33 0 33-18.4v-298.2c0-22.1-14.7-44.2-33-55.2l-264-154.7c-18.3-11-33 0-33 18.4V306.5c0 22.1 14.7 44.2 33 55.2l264 154.7z"  horiz-adv-x="1024" />

    
    <glyph glyph-name="shujudingyi" unicode="&#58907;" d="M665.4-128c-18.6 0-36.7 8.2-48.4 21.8-15.9 18.5-66.4 66.6-107.7 66.6-41 0-92.2-48.4-106.9-65.3-11.7-13.4-29.6-21.5-48.1-21.5-8.8 0-17.1 1.8-24.6 5.3l-1.3 0.6L202.8-46l-1.2 0.9c-22.9 17.4-31.4 49.5-20.2 77.1 0.1 0.2 11.6 28.3 11.6 53.9 0 77.8-59.7 141-133.1 141h-5.2c-21 0-38.1 19.8-43.6 50.4C10.7 279.8 0.4 337.8 0.4 383.6s10.3 103.8 10.7 106.3c5.5 31 23 50.9 44.4 50.4h4.4c73.4 0 133.1 63.2 133.1 141 0 25.6-11.5 53.7-11.6 54-11.2 27.6-2.7 59.8 20.4 77l1.3 1 132.4 77 1.4 0.6c7.5 3.4 15.6 5.1 24.3 5.1 18.4 0 36.4-7.9 48.2-21 15.7-17.4 65.2-62.6 105.3-62.6 39.7 0 89 44.3 104.6 61.4C631 886.7 648.9 894.4 667.1 894.4c8.8 0 17.1-1.8 24.7-5.3l1.3-0.6L821 813.2l1.2-0.9c22.9-16.9 31.6-50.1 20.3-77.1-0.1-0.2-11.6-28.3-11.6-53.9 0-77.8 59.7-141 133-141h4.4c21.4 0.5 38.9-19.4 44.4-50.4 0.4-2.5 10.7-60.5 10.7-106.3s-10.3-103.8-10.7-106.3c-5.5-31-23-50.9-44.4-50.4h-4.4c-73.4 0-133-63.2-133-141 0-25.6 11.5-53.7 11.6-54 11.1-27.6 2.7-59.7-20.3-77l-1.3-1-130.1-76.2-1.3-0.6c-7.4-3.4-15.5-5.1-24.1-5.1z m-4 65c1.2-0.7 2.6-1.1 3.9-1.1h0.2l121.6 71.2c-2.9 7.2-16.3 42.3-16.3 78.8 0 109.3 81.3 199 183.2 204.6 1.5 8.6 9.4 56.9 9.4 93.1s-8 84.5-9.4 93.1c-101.9 5.6-183.2 95.2-183.2 204.6 0 36.6 13.5 71.7 16.4 78.9L667.5 830.5h-0.5c-1.6 0-3.2-0.4-4.6-1.2-2-2.2-19.3-20.8-44.3-39.4-36.8-27.5-71.7-41.4-103.6-41.4-32.2 0-67.3 14.2-104.4 42.2a344.5 344.5 0 0 0-44.5 40.1c-1.4 0.8-3 1.3-4.6 1.3h-0.4L236.9 760c3-7.3 16.3-42.3 16.3-78.8 0-109.4-81.3-199-183.2-204.6-1.5-8.6-9.4-56.9-9.4-93.1s8-84.4 9.4-93.1c101.9-5.6 183.2-95.2 183.2-204.6 0-36.7-13.5-71.9-16.4-78.9L354-62.6h0.3c1.7 0 3.3 0.7 3.9 1.1 2.2 2.5 19.7 22.2 44.9 41.7 37.6 29.2 73.3 44 106.2 44 33.2 0 69.2-15.1 107-44.9 16.2-12.6 31.3-26.8 45.1-42.3zM509.8 196.5c-97.7 0-177.2 84.2-177.2 187.8S412 572 509.8 572c97.7 0 177.2-84.2 177.2-187.8s-79.5-187.7-177.2-187.7z m0 311.7c-64.5 0-116.9-55.6-116.9-123.9 0-68.3 52.4-123.9 116.9-123.9S626.7 316 626.7 384.3c0 68.3-52.5 123.9-116.9 123.9z"  horiz-adv-x="1024" />

    
    <glyph glyph-name="jisuandingyi" unicode="&#58908;" d="M151.4 594.2c43.3 0 77.3-8.9 101.8-27.7 26.1-19.3 40.7-49.1 44.4-89.8h-56.4c-5.2 24-14.6 41.8-29.2 52.2-14.6 11-35.5 16.2-63.7 16.2-24.5 0-43.3-3.7-56.4-11-16.2-8.4-24-21.9-24-40.7 0-16.7 8.9-29.8 27.7-39.7 8.4-4.7 29.8-12.5 64.8-23 50.1-15.7 83-27.7 97.6-36.6 31.9-19.3 48-46 48-80.4 0-33.4-13.1-59.5-39.2-78.8-26.1-18.8-62.7-28.2-109.7-28.2-45.4 0-80.9 9.4-106.5 27.2C19.8 255.8 3.1 290.3 0 337.3h56.4c4.2-29.2 14.6-50.7 31.3-63.2 15.1-11.5 38.1-17.2 69.5-17.2 28.2 0 50.7 5.2 67.4 14.6 16.7 9.4 25.1 22.5 25.1 39.2 0 20.9-12 37.1-35.5 49.1-8.4 4.2-32.9 12.5-74.1 25.1-46 14.6-74.1 24.5-85.6 30.8-28.7 17.2-42.8 42.3-42.8 74.7 0 32.9 13.6 58.5 41.3 77.3 25.8 17.6 58.7 26.5 98.4 26.5z m372.3 0c56.4 0 101.3-18.3 134.2-55.4 31.3-35 47-81.5 47-138.9 0-55.9-15.1-101.3-45.4-136.8 13.6-18.3 27.7-37.1 41.3-56.9l-36.6-32.4c-14.1 20.4-27.7 39.7-41.3 58-27.7-16.7-60.6-25.1-99.2-25.1-56.9 0-101.8 18.8-134.2 55.4C358.2 297.6 343 343.6 343 400c0 56.9 15.1 102.9 46.5 138.4 32.4 37.5 77.3 55.8 134.2 55.8z m0-50.2c-39.7 0-70.5-13.1-92.4-40.2-20.9-25.6-31.3-60.1-31.3-103.9 0-43.3 10.4-77.8 31.3-103.4 21.9-26.1 52.7-39.7 92.4-39.7 26.1 0 48.6 5.7 66.8 16.7-18.8 23.5-37.6 44.9-55.9 64.2l32.9 32.4c18.8-19.8 37.6-41.3 56.4-63.2 15.7 24 23.5 54.8 23.5 92.9 0 44.9-11 79.9-31.9 105.5-21.3 26.2-52.1 38.7-91.8 38.7z m238.7 42.9h56.4v-324.3H1024V214H762.4V586.9z"  horiz-adv-x="1024" />

    
    <glyph glyph-name="xiala" unicode="&#58909;" d="M0-128h1024V896z"  horiz-adv-x="1024" />

    
    <glyph glyph-name="xialakuang" unicode="&#58910;" d="M512 18.3l512 731.4H0z"  horiz-adv-x="1024" />

    
    <glyph glyph-name="jiedian" unicode="&#58911;" d="M342.2 401.1c-0.6-5.6-0.8-11.3-0.8-17.1 0-5.8 0.3-11.5 0.8-17.1H0V401h342.2z m339.6 0H1024V367H681.8c0.6 5.6 0.8 11.3 0.8 17.1 0.1 5.7-0.2 11.4-0.8 17zM512 247.5c-75.4 0-136.5 61.1-136.5 136.5S436.6 520.5 512 520.5 648.5 459.4 648.5 384 587.4 247.5 512 247.5z m0 34.1c56.6 0 102.4 45.8 102.4 102.4S568.6 486.4 512 486.4 409.6 440.6 409.6 384 455.4 281.6 512 281.6z"  horiz-adv-x="1024" />

    


  </font>
</defs>
</svg>
